# xmcd
#
# Track frame offsets:
#	150
#	12832
#	29870
#	43697
#	57107
#	69010
#	81532
#	95197
#	107135
#	141177
#	165257
#	196815
#	231205
#	273382
#	294362
#	316470
#
# Disc length: 4642
#
# Revision: 1
# Processed by: cddbd v1.5.1PL0 Copyright (c) Steve Scherf et al.
# Submitted via: CDex 1.50
# Normalized: r0:DSETVAR1,TDELIM( - )
#
DISCID=e1122010
DTITLE=Various Artist - The Prestige Records Story - CD1
DYEAR=1999
DGENRE=Jazz
TTITLE0=Lee Konitz - Subconscious-lee
TTITLE1=Stan Getz - Four and one more
TTITLE2=Wardell Gray - Twisted
TTITLE3=Sony Stitt - All goods Chillun got Rhythm
TTITLE4=Gene Ammons - Blues up and Down
TTITLE5=James Moody - i am in the Mood for Love
TTITLE6=King Pleasure - Moodys Mood for Love
TTITLE7=Annie Ross - Twisted
TTITLE8=Miles Davis - Dig
TTITLE9=Jimmy Raney n Stan Getz - Round Midnight
TTITLE10=Miles Davis - The Serpent Tooth
TTITLE11=Thelonious Monk - Blue Monk
TTITLE12=Miles Davis - Bags Groove (Take 2)
TTITLE13=Milt Jackson - My funny Valentine
TTITLE14=Miles Davis - Doxy
TTITLE15=The Modern Jazz Quartet - Django
EXTD=YEAR: 1999
EXTT0=
EXTT1=
EXTT2=
EXTT3=
EXTT4=
EXTT5=
EXTT6=
EXTT7=
EXTT8=
EXTT9=
EXTT10=
EXTT11=
EXTT12=
EXTT13=
EXTT14=
EXTT15=
PLAYORDER=
